TITLE "Some title"
FILE "some binary 1.bin" BINARY
  TRACK 01 AUDIO
    TITLE "Title 1"
    PERFORMER "Performer 1"
    INDEX 01 00:00:00
FILE "some file 1.mp3" MP3
  TRACK 02 AUDIO
    TITLE "Title 1"
    PERFORMER "Performer 1"
    INDEX 01 00:00:00
  TRACK 03 AUDIO
    TITLE "Title 2"
    PERFORMER "Performer 2"
    INDEX 01 00:05:00
FILE "some file 2.WAV" WAVE
  TRACK 04 AUDIO
    TITLE "Title 3"
    PERFORMER "Performer 5"
    INDEX 00 00:00:00
    INDEX 01 00:01:00
  TRACK 05 AUDIO
    TITLE "Title 4"
    PERFORMER "Performer 4"
    INDEX 01 00:05:00
